#N canvas 827 239 527 327 12;
#X obj 748 137 tgl 25 0 empty empty start/stop\ ping -22 -8 0 14 #191919 #e1e1e1 #e1e1e1 0 1;
#X obj 743 250 del 50;
#X obj 556 295 *~;
#X obj 556 533 dac~;
#X msg 696 295 0;
#X obj 556 250 osc~ 440;
#X obj 696 213 metro 1000;
#X obj 672 459 dattorro-reverb;
#X obj 650 139 vsl 17 50 0 1 0 0 verb_send empty reverb\ send -18 -10 0 14 #191919 #e1e1e1 #e1e1e1 0 1;
#X obj 556 139 vsl 17 50 0 1 0 0 dry_vol empty dry\ volume -18 -10 0 14 #191919 #e1e1e1 #e1e1e1 0 1;
#X obj 672 376 *~;
#X msg 696 250 0.5;
#X obj 556 459 *~;
#X obj 834 295 loadbang;
#X obj 590 376 r dry_vol;
#X obj 727 295 r verb_send;
#X floatatom 721 376 5 0 200 0 - - - 12;
#X floatatom 771 376 5 0 0.999 0 - - - 12;
#X floatatom 822 376 5 0 1 0 - - - 12;
#X floatatom 873 376 5 0 0.999 0 - - - 12;
#X msg 721 338 30;
#X msg 899 338 0.75;
#X msg 771 338 0.995;
#X msg 834 338 0.005;
#X text 781 458 inlets L to R \; in - signal \; predelay - 0 to 200ms \; bandwidth - 0 to 0.999 \, attenuates input signal high frequencies \; damping - 0 to 1 \, attenuates high frequencies in reverb output \; gain - 0 to 0.999 \, loosely correlates to decay;
#X connect 0 0 6 0;
#X connect 1 0 4 0;
#X connect 2 0 10 0;
#X connect 2 0 12 0;
#X connect 4 0 2 1;
#X connect 5 0 2 0;
#X connect 6 0 11 0;
#X connect 6 0 1 0;
#X connect 7 0 3 0;
#X connect 7 1 3 1;
#X connect 10 0 7 0;
#X connect 11 0 2 1;
#X connect 12 0 3 0;
#X connect 12 0 3 1;
#X connect 13 0 20 0;
#X connect 13 0 22 0;
#X connect 13 0 23 0;
#X connect 13 0 21 0;
#X connect 14 0 12 1;
#X connect 15 0 10 1;
#X connect 16 0 7 1;
#X connect 17 0 7 2;
#X connect 18 0 7 3;
#X connect 19 0 7 4;
#X connect 20 0 16 0;
#X connect 21 0 19 0;
#X connect 22 0 17 0;
#X connect 23 0 18 0;
