#N canvas 413 405 484 257 10;
#X obj 11 154 +~;
#X obj 35 115 *~;
#X obj 190 52 * -1;
#X obj 179 115 *~;
#X obj 180 154 +~;
#X obj 11 14 inlet~ sound;
#X obj 95 14 inlet time;
#X obj 176 14 inlet gain;
#X obj 261 197 outlet~ tap out1;
#X obj 412 197 outlet~ tap out2;
#X obj 261 14 inlet tap time1;
#X obj 412 14 inlet tap time2;
#X obj 180 197 outlet~ out;
#X obj 35 71 delread~ \$1 0;
#X obj 11 197 delwrite~ \$1 100;
#X obj 261 71 delread~ \$1 0;
#X obj 412 71 delread~ \$1 0;
#X connect 0 0 3 0;
#X connect 0 0 14 0;
#X connect 1 0 0 1;
#X connect 2 0 3 1;
#X connect 3 0 4 1;
#X connect 4 0 12 0;
#X connect 5 0 0 0;
#X connect 6 0 13 0;
#X connect 7 0 1 1;
#X connect 7 0 2 0;
#X connect 10 0 15 0;
#X connect 11 0 16 0;
#X connect 13 0 1 0;
#X connect 13 0 4 0;
#X connect 15 0 8 0;
#X connect 16 0 9 0;
