#N canvas 863 218 344 312 10;
#X obj 32 151 +~;
#X obj 59 114 *~;
#X obj 131 114 *~;
#X obj 131 151 +~;
#X obj 210 114 * -1;
#X obj 32 25 inlet~ in;
#X obj 123 25 inlet time;
#X obj 210 65 inlet gain;
#X obj 191 192 outlet~ out;
#X obj 59 65 delread~ \$1 0;
#X obj 32 192 delwrite~ \$1 100;
#X connect 0 0 2 0;
#X connect 0 0 10 0;
#X connect 1 0 0 1;
#X connect 2 0 3 1;
#X connect 3 0 8 0;
#X connect 4 0 2 1;
#X connect 5 0 0 0;
#X connect 6 0 9 0;
#X connect 7 0 1 1;
#X connect 7 0 4 0;
#X connect 9 0 3 0;
#X connect 9 0 1 0;
