#N canvas 269 86 758 682 10;
#X obj 97 104 delwrite~ predelay 200;
#X obj 275 69 clip 0 200;
#X obj 97 335 rpole~;
#X msg 188 370 0.75;
#X obj 175 335 loadbang;
#X msg 188 441 0.75;
#X obj 188 404 loadbang;
#X obj 187 479 loadbang;
#X msg 187 515 0.625;
#X obj 187 555 loadbang;
#X msg 187 591 0.625;
#X obj 494 257 loadbang;
#X obj 97 274 *~;
#X obj 442 104 - 1;
#X obj 442 129 * -1;
#X obj 342 527 rpole~;
#X obj 342 478 *~;
#X obj 664 70 clip 0 1;
#X obj 632 105 - 1;
#X obj 632 132 * -1;
#X obj 342 383 delwrite~ dela 200;
#X obj 520 478 loadbang;
#X msg 499 527 64.2;
#X obj 341 668 delwrite~ delc 200;
#X obj 835 257 loadbang;
#X obj 664 527 rpole~;
#X obj 664 478 *~;
#X obj 846 478 loadbang;
#X obj 664 383 delwrite~ deld 200;
#X obj 755 257 *~;
#X obj 436 257 *~;
#X obj 664 300 +~;
#X obj 342 300 +~;
#X msg 798 300 0.7;
#X obj 955 214 delread~ dela 8.9;
#X obj 1012 243 delread~ dela 99.8;
#X obj 955 282 +~;
#X obj 955 319 -~;
#X obj 1012 319 delread~ delc 67;
#X obj 955 360 +~;
#X obj 955 397 -~;
#X obj 1012 360 delread~ deld 66.8;
#X msg 827 527 6.3;
#X obj 955 436 -~;
#X obj 664 668 delwrite~ delf 200;
#X obj 1012 436 delread~ delf 35.8;
#X obj 955 471 -~;
#X obj 1173 281 +~;
#X obj 1173 319 -~;
#X obj 1173 360 +~;
#X obj 1173 397 -~;
#X obj 1173 436 -~;
#X obj 1173 478 -~;
#X obj 1173 214 delread~ deld 11.8;
#X obj 1231 244 delread~ deld 121.7;
#X msg 873 527 41.2;
#X obj 1228 319 delread~ delf 89.7;
#X obj 1228 360 delread~ dela 70.8;
#X msg 550 527 11.2;
#X obj 1228 436 delread~ delc 4.1;
#X msg 476 300 0.7;
#X msg 128 591 9.307;
#X msg 128 515 12.73;
#X msg 128 441 3.595;
#X msg 131 370 4.771;
#X msg 726 300 22.58;
#X msg 409 300 30.51;
#X msg 722 527 60.48;
#X msg 399 527 89.24;
#X obj 664 436 delread~ deld 149.62;
#X obj 342 436 delread~ dela 141.69;
#X obj 447 214 delread~ delf 125;
#X obj 766 214 delread~ delc 106.28;
#X msg 460 527 0.5;
#X msg 783 527 0.5;
#X obj 955 508 *~ 0.125;
#X obj 1173 512 *~ 0.125;
#X obj 664 629 *~;
#X obj 341 629 *~;
#X obj 97 214 delread~ predelay 0;
#X obj 97 36 inlet~ in;
#X obj 664 37 inlet damping - 0 to 1;
#X msg 529 300 0.1;
#X msg 860 300 0.07;
#X obj 384 629 s~ ap1_tap1;
#X obj 479 629 s~ ap1_tap2;
#X obj 1228 397 r~ ap1_tap2;
#X obj 706 629 s~ ap2_tap1;
#X obj 795 629 s~ ap2_tap2;
#X obj 1012 397 r~ ap2_tap1;
#X obj 1231 281 r~ ap2_tap2;
#X obj 442 160 s bw_flipped;
#X obj 486 104 s bw_clipped;
#X obj 131 300 r bw_flipped;
#X obj 131 243 r bw_clipped;
#X obj 275 104 s predelay_clipped;
#X obj 97 179 r predelay_clipped;
#X obj 814 104 s gain_clipped;
#X obj 342 214 r gain_clipped;
#X obj 664 214 r gain_clipped;
#X obj 691 105 s damp_clipped;
#X obj 632 161 s damp_flipped;
#X obj 487 436 r damp_flipped;
#X obj 384 478 r damp_clipped;
#X obj 813 436 r damp_flipped;
#X obj 715 478 r damp_clipped;
#X obj 664 581 r gain_clipped;
#X obj 341 581 r gain_clipped;
#X obj 275 36 inlet predelay - 0 to 200 ms;
#X obj 1012 282 r~ ap1_tap1;
#X obj 955 549 outlet~ left out;
#X obj 1173 549 outlet~ right out;
#X obj 97 404 allpass ap_a;
#X obj 97 479 allpass ap_b;
#X obj 97 555 allpass ap_c;
#X obj 97 629 allpass ap_d;
#X obj 97 668 s~ pass1_out;
#X obj 342 257 r~ pass1_out;
#X obj 664 257 r~ pass1_out;
#X obj 342 342 mod-allpass map_a;
#X obj 664 342 mod-allpass map_b;
#X obj 449 581 2tap-allpass 2tap_a;
#X obj 771 581 2tap-allpass 2tap_b;
#X obj 97 71 *~ 0.5;
#X obj 469 69 clip 0 0.999;
#X obj 814 70 clip 0 0.999;
#X obj 814 36 inlet gain - 0 to 0.999;
#X obj 469 36 inlet bandwidth - 0 to 0.999;
#X connect 1 0 95 0;
#X connect 2 0 112 0;
#X connect 3 0 112 2;
#X connect 4 0 3 0;
#X connect 4 0 64 0;
#X connect 5 0 113 2;
#X connect 6 0 5 0;
#X connect 6 0 63 0;
#X connect 7 0 8 0;
#X connect 7 0 62 0;
#X connect 8 0 114 2;
#X connect 9 0 10 0;
#X connect 9 0 61 0;
#X connect 10 0 115 2;
#X connect 11 0 60 0;
#X connect 11 0 66 0;
#X connect 11 0 82 0;
#X connect 12 0 2 0;
#X connect 13 0 14 0;
#X connect 14 0 91 0;
#X connect 15 0 121 0;
#X connect 16 0 15 0;
#X connect 17 0 18 0;
#X connect 17 0 100 0;
#X connect 18 0 19 0;
#X connect 19 0 101 0;
#X connect 21 0 73 0;
#X connect 21 0 68 0;
#X connect 21 0 22 0;
#X connect 21 0 58 0;
#X connect 22 0 121 3;
#X connect 24 0 33 0;
#X connect 24 0 65 0;
#X connect 24 0 83 0;
#X connect 25 0 122 0;
#X connect 26 0 25 0;
#X connect 26 0 25 1;
#X connect 27 0 67 0;
#X connect 27 0 42 0;
#X connect 27 0 55 0;
#X connect 27 0 74 0;
#X connect 29 0 31 1;
#X connect 30 0 32 1;
#X connect 31 0 120 0;
#X connect 32 0 119 0;
#X connect 33 0 120 2;
#X connect 34 0 36 0;
#X connect 35 0 36 1;
#X connect 36 0 37 0;
#X connect 37 0 39 0;
#X connect 38 0 39 1;
#X connect 39 0 40 0;
#X connect 40 0 43 0;
#X connect 41 0 40 1;
#X connect 42 0 122 3;
#X connect 43 0 46 0;
#X connect 45 0 46 1;
#X connect 46 0 75 0;
#X connect 47 0 48 0;
#X connect 48 0 49 0;
#X connect 49 0 50 0;
#X connect 50 0 51 0;
#X connect 51 0 52 0;
#X connect 52 0 76 0;
#X connect 53 0 47 0;
#X connect 54 0 47 1;
#X connect 55 0 122 4;
#X connect 56 0 49 1;
#X connect 57 0 50 1;
#X connect 58 0 121 4;
#X connect 59 0 52 1;
#X connect 60 0 119 2;
#X connect 61 0 115 1;
#X connect 62 0 114 1;
#X connect 63 0 113 1;
#X connect 64 0 112 1;
#X connect 65 0 120 1;
#X connect 66 0 119 1;
#X connect 67 0 122 1;
#X connect 68 0 121 1;
#X connect 69 0 26 0;
#X connect 70 0 16 0;
#X connect 71 0 30 1;
#X connect 72 0 29 1;
#X connect 73 0 121 2;
#X connect 74 0 122 2;
#X connect 75 0 110 0;
#X connect 76 0 111 0;
#X connect 77 0 44 0;
#X connect 78 0 23 0;
#X connect 79 0 12 0;
#X connect 80 0 123 0;
#X connect 81 0 17 0;
#X connect 82 0 119 3;
#X connect 83 0 120 3;
#X connect 86 0 51 1;
#X connect 89 0 43 1;
#X connect 90 0 48 1;
#X connect 93 0 2 1;
#X connect 94 0 12 1;
#X connect 96 0 79 0;
#X connect 98 0 30 0;
#X connect 99 0 29 0;
#X connect 102 0 16 1;
#X connect 103 0 15 1;
#X connect 104 0 26 1;
#X connect 105 0 25 1;
#X connect 106 0 77 0;
#X connect 107 0 78 0;
#X connect 108 0 1 0;
#X connect 109 0 37 1;
#X connect 112 0 113 0;
#X connect 113 0 114 0;
#X connect 114 0 115 0;
#X connect 115 0 116 0;
#X connect 117 0 32 0;
#X connect 118 0 31 0;
#X connect 119 0 20 0;
#X connect 120 0 28 0;
#X connect 121 0 78 1;
#X connect 121 1 84 0;
#X connect 121 2 85 0;
#X connect 122 0 77 1;
#X connect 122 1 87 0;
#X connect 122 2 88 0;
#X connect 123 0 0 0;
#X connect 124 0 13 0;
#X connect 124 0 92 0;
#X connect 125 0 97 0;
#X connect 126 0 125 0;
#X connect 127 0 124 0;
