#N canvas 827 239 527 327 12;
#X obj 388 33 adc~;
#X obj 388 331 dac~;
#X obj 568 33 r knob1 @hv_param;
#X obj 568 87 * 200;
#X obj 682 87 r knob2 @hv_param;
#X obj 748 114 r knob3 @hv_param;
#X obj 748 152 r knob4 @hv_param;
#X obj 568 188 +~;
#X obj 475 236 *~;
#X obj 568 152 dattorro-reverb;
#X obj 388 87 *~;
#X obj 622 236 r knob5 @hv_param;
#X obj 388 236 *~;
#X obj 424 152 r knob6 @hv_param;
#X obj 517 236 * 2;
#X obj 682 152 change;
#X obj 559 236 change;
#X obj 424 188 change;
#X obj 568 60 change;
#X obj 620 87 change;
#X obj 682 114 change;
#X obj 74 33 r fs2 @hv_param;
#X obj 74 331 s led2 @hv_param;
#X obj 74 78 tgl 25 0 empty empty empty 17 7 0 10 #191919 #ffffff #ffffff 0 1;
#X obj 27 33 bng 25 250 50 0 empty empty empty 17 7 0 10 #191919 #ffffff #ffffff;
#X obj 119 206 *~ -1;
#X obj 119 246 +~ 1;
#X obj 119 288 s~ effect_bypass;
#X obj 181 206 s~ effect_engage;
#X obj 119 166 line~;
#X msg 119 130 \$1 10;
#X obj 444 33 r~ effect_engage;
#X obj 261 33 r~ effect_bypass;
#X obj 298 152 *~;
#X connect 0 0 10 0;
#X connect 0 0 33 1;
#X connect 2 0 18 0;
#X connect 3 0 9 1;
#X connect 4 0 19 0;
#X connect 5 0 20 0;
#X connect 6 0 15 0;
#X connect 7 0 8 0;
#X connect 8 0 1 0;
#X connect 9 0 7 0;
#X connect 9 1 7 1;
#X connect 10 0 9 0;
#X connect 10 0 12 0;
#X connect 11 0 16 0;
#X connect 12 0 1 0;
#X connect 13 0 17 0;
#X connect 14 0 8 1;
#X connect 15 0 9 4;
#X connect 16 0 14 0;
#X connect 17 0 12 1;
#X connect 18 0 3 0;
#X connect 19 0 9 2;
#X connect 20 0 9 3;
#X connect 21 0 23 0;
#X connect 23 0 22 0;
#X connect 23 0 30 0;
#X connect 24 0 23 0;
#X connect 25 0 26 0;
#X connect 26 0 27 0;
#X connect 29 0 25 0;
#X connect 29 0 28 0;
#X connect 30 0 29 0;
#X connect 31 0 10 1;
#X connect 32 0 33 0;
#X connect 33 0 1 0;
