#N canvas 575 269 331 315 10;
#X obj 20 202 +~;
#X obj 67 162 *~;
#X obj 185 106 * -1;
#X obj 185 162 *~;
#X obj 174 202 +~;
#X obj 273 47 osc~;
#X obj 67 75 +~;
#X obj 273 75 *~ 4;
#X obj 20 16 inlet~ in;
#X obj 97 16 inlet time;
#X obj 185 16 inlet gain;
#X obj 273 16 inlet freq;
#X obj 174 255 outlet~ out;
#X obj 67 106 vd~ \$1;
#X obj 20 255 delwrite~ \$1 100;
#X connect 0 0 3 0;
#X connect 0 0 14 0;
#X connect 1 0 0 1;
#X connect 2 0 3 1;
#X connect 3 0 4 1;
#X connect 4 0 12 0;
#X connect 5 0 7 0;
#X connect 6 0 13 0;
#X connect 7 0 6 1;
#X connect 8 0 0 0;
#X connect 9 0 6 0;
#X connect 10 0 1 1;
#X connect 10 0 2 0;
#X connect 11 0 5 0;
#X connect 13 0 1 0;
#X connect 13 0 4 0;
