#N canvas 827 239 527 327 12;
#X obj 561 191 adc~;
#X obj 561 657 dac~;
#X obj 827 221 r knob1 @hv_param;
#X obj 1040 189 r fs2 @hv_param;
#X obj 1040 308 s led2 @hv_param;
#X obj 787 260 change;
#X obj 790 191 hsl 128 17 0 1 0 0 empty empty Delay\ Time -2 -8 0 10 #191919 #ffffff #ffffff 0 1;
#X obj 1016 243 tgl 25 0 empty empty empty 17 7 0 10 #191919 #ffffff #ffffff 0 1;
#X obj 991 189 bng 25 250 50 0 empty empty empty 17 7 0 10 #191919 #ffffff #ffffff;
#X obj 611 243 *~;
#X obj 561 616 +~;
#X obj 787 384 * 1000;
#X obj 976 528 change;
#X obj 979 452 hsl 128 17 0 1 0 0 empty empty Delay\ Send -2 -8 0 10 #191919 #ffffff #ffffff 0 1;
#X obj 827 528 change;
#X obj 790 452 hsl 128 17 0 1 0 0 empty empty Delay\ Feedback -2 -8 0 10 #191919 #ffffff #ffffff 0 1;
#X obj 827 484 r knob2 @hv_param;
#X obj 1016 484 r knob3 @hv_param;
#X obj 611 290 *~;
#X obj 645 616 *~;
#X obj 660 290 r~ fdbk;
#X obj 645 657 s~ fdbk;
#X obj 611 338 +~;
#X obj 611 384 delwrite~ del1 1000;
#X obj 976 344 line~;
#X obj 976 384 s~ bypass;
#X obj 660 191 r~ bypass;
#X obj 827 657 s~ fdbk_amt;
#X obj 693 528 r~ fdbk_amt;
#X obj 976 657 s~ del_send;
#X obj 660 243 r~ del_send;
#X obj 827 612 line~;
#X obj 976 612 line~;
#X obj 611 528 vd~ del1;
#X obj 611 490 line~;
#X msg 611 452 \$1 10;
#X msg 827 569 \$1 10;
#X msg 976 569 \$1 10;
#X msg 976 308 \$1 10;
#X obj 693 569 clip~ 0 0.9;
#X connect 0 0 9 0;
#X connect 0 0 10 0;
#X connect 2 0 5 0;
#X connect 3 0 7 0;
#X connect 5 0 11 0;
#X connect 6 0 5 0;
#X connect 7 0 4 0;
#X connect 7 0 38 0;
#X connect 8 0 7 0;
#X connect 9 0 18 0;
#X connect 10 0 1 0;
#X connect 11 0 35 0;
#X connect 12 0 37 0;
#X connect 13 0 12 0;
#X connect 14 0 36 0;
#X connect 15 0 14 0;
#X connect 16 0 14 0;
#X connect 17 0 12 0;
#X connect 18 0 22 0;
#X connect 19 0 21 0;
#X connect 20 0 22 1;
#X connect 22 0 23 0;
#X connect 24 0 25 0;
#X connect 26 0 9 1;
#X connect 28 0 39 0;
#X connect 30 0 18 1;
#X connect 31 0 27 0;
#X connect 32 0 29 0;
#X connect 33 0 10 1;
#X connect 33 0 19 0;
#X connect 34 0 33 0;
#X connect 35 0 34 0;
#X connect 36 0 31 0;
#X connect 37 0 32 0;
#X connect 38 0 24 0;
#X connect 39 0 19 1;
