#N canvas 827 239 527 327 12;
#X obj 657 394 *~ 0.5;
#X obj 657 433 +~ 0.5;
#X obj 657 472 *~;
#X obj 802 357 * -1;
#X obj 802 394 + 1;
#X obj 657 510 +~;
#X obj 657 205 * 20;
#X obj 657 357 osc~;
#X obj 657 241 clip 0.1 20;
#X obj 657 134 r knob1 @hv_param;
#X obj 734 278 r knob2 @hv_param;
#X obj 112 205 r fs2 @hv_param;
#X obj 112 503 s led2 @hv_param;
#X obj 112 250 tgl 25 0 empty empty empty 17 7 0 10 #191919 #ffffff #ffffff 0 1;
#X obj 65 205 bng 25 250 50 0 empty empty empty 17 7 0 10 #191919 #ffffff #ffffff;
#X obj 157 378 *~ -1;
#X obj 157 418 +~ 1;
#X obj 157 460 s~ effect_bypass;
#X obj 219 378 s~ effect_engage;
#X obj 157 338 line~;
#X msg 157 302 \$1 10;
#X obj 437 134 adc~;
#X obj 437 552 dac~;
#X obj 393 254 *~;
#X obj 487 254 *~;
#X obj 437 447 +~;
#X obj 487 378 *~;
#X obj 287 205 r~ effect_bypass;
#X obj 514 205 r~ effect_engage;
#X obj 657 170 change;
#X msg 657 278 \$1 10;
#X obj 657 318 line~;
#X obj 734 314 change;
#X msg 734 394 \$1 10;
#X obj 734 433 line~;
#X msg 802 433 \$1 10;
#X obj 802 472 line~;
#X obj 657 552 s~ trem;
#X obj 514 338 r~ trem;
#X connect 0 0 1 0;
#X connect 1 0 2 0;
#X connect 2 0 5 0;
#X connect 3 0 4 0;
#X connect 4 0 35 0;
#X connect 5 0 37 0;
#X connect 6 0 8 0;
#X connect 7 0 0 0;
#X connect 8 0 30 0;
#X connect 9 0 29 0;
#X connect 10 0 32 0;
#X connect 11 0 13 0;
#X connect 13 0 12 0;
#X connect 13 0 20 0;
#X connect 14 0 13 0;
#X connect 15 0 16 0;
#X connect 16 0 17 0;
#X connect 19 0 15 0;
#X connect 19 0 18 0;
#X connect 20 0 19 0;
#X connect 21 0 23 0;
#X connect 21 0 24 0;
#X connect 23 0 25 0;
#X connect 24 0 26 0;
#X connect 25 0 22 0;
#X connect 26 0 25 1;
#X connect 27 0 23 1;
#X connect 28 0 24 1;
#X connect 29 0 6 0;
#X connect 30 0 31 0;
#X connect 31 0 7 0;
#X connect 32 0 3 0;
#X connect 32 0 33 0;
#X connect 33 0 34 0;
#X connect 34 0 2 1;
#X connect 35 0 36 0;
#X connect 36 0 5 1;
#X connect 38 0 26 1;
