#N canvas 827 239 527 327 12;
#X obj 561 420 change;
#X obj 718 420 change;
#X obj 561 461 sel 1;
#X obj 718 461 sel 1;
#X obj 639 461 sel 1;
#X msg 564 500 1;
#X msg 639 500 0.66;
#X msg 720 500 0;
#X obj 639 381 ==;
#X obj 601 549 s led1 @hv_param;
#X obj 639 420 change;
#X obj 639 340 t b f;
#X obj 561 275 r sw1_up_press @hv_param;
#X obj 718 306 r sw1_down_press @hv_param;
#X connect 0 0 2 0;
#X connect 1 0 3 0;
#X connect 2 0 5 0;
#X connect 3 0 7 0;
#X connect 4 0 6 0;
#X connect 5 0 9 0;
#X connect 6 0 9 0;
#X connect 7 0 9 0;
#X connect 8 0 10 0;
#X connect 10 0 4 0;
#X connect 11 0 8 0;
#X connect 11 1 8 1;
#X connect 12 0 0 0;
#X connect 12 0 8 0;
#X connect 13 0 1 0;
#X connect 13 0 11 0;
