#N canvas 827 239 527 327 12;
#X msg 776 233 1;
#X msg 889 233 0;
#X obj 783 303 s led1 @hv_param;
#X obj 624 183 r sw1_up @hv_param;
#X obj 861 183 r sw1_down @hv_param;
#X obj 821 101 r sw1_up_fall @hv_param;
#X obj 850 141 r sw1_down_fall @hv_param;
#X msg 821 233 0.66;
#X obj 626 27 loadbang;
#X obj 641 101 f 0;
#X obj 626 65 delay 100;
#X obj 757 141 select 0;
#X msg 749 65 1;
#X obj 704 27 r not_middle_flag;
#X obj 624 233 s not_middle_flag;
#X obj 954 233 s not_middle_flag;
#X connect 0 0 2 0;
#X connect 1 0 2 0;
#X connect 3 0 0 0;
#X connect 3 0 14 0;
#X connect 4 0 1 0;
#X connect 4 0 15 0;
#X connect 5 0 7 0;
#X connect 6 0 7 0;
#X connect 7 0 2 0;
#X connect 8 0 10 0;
#X connect 9 0 11 0;
#X connect 10 0 9 0;
#X connect 11 0 7 0;
#X connect 12 0 9 1;
#X connect 13 0 12 0;
